# xmcd CD database file
#
# Track frame offsets:
#	183
#	6843
#	26808
#	42140
#	56090
#	64390
#	78575
#	91563
#	107898
#	126005
#	140385
#	151733
#	166535
#	187435
#	207033
#	218070
#	230223
#	251378
#	266190
#	278485
#	296655
#	311693
#	320615
#
# Disc length: 4325 seconds
#
# Revision: 3
# Processed by: cddbd v1.5.2PL0 Copyright (c) Steve Scherf et al.
# Submitted via: CDex 1.51
#
DISCID=4d10e317
DTITLE=Glenn Miller - On The Air  {1938-1939}
DYEAR=1990
DGENRE=Jazz
TTITLE0=Moonlight Serenade
TTITLE1=At Sundown
TTITLE2=Sunrise Serenade
TTITLE3=Little Brown Jug
TTITLE4=Danny Boy
TTITLE5=Sliphorn Jive
TTITLE6=The Lady's In Love With You
TTITLE7=Showboat Medley
TTITLE8=Hold Tight
TTITLE9=My Isle Of Golden Dreams
TTITLE10=Ain't Cha Commin'out
TTITLE11=Beer Barrel Polka
TTITLE12=Song Of The Bayou
TTITLE13=Mutiny In The Nursery
TTITLE14=I Know You Know
TTITLE15=Back To Back
TTITLE16=In The Mood
TTITLE17=The Chesnut Tree
TTITLE18=King Porter Stomp
TTITLE19=Oh Baby
TTITLE20=When Paw Was Courtin' Naw
TTITLE21=Pagan Love Song
TTITLE22=Moonlight Serenade
EXTD=Jazz Archives N°17\n1938/1939\n YEAR: 1990
EXTT0=
EXTT1=
EXTT2=
EXTT3=
EXTT4=
EXTT5=
EXTT6=
EXTT7=
EXTT8=
EXTT9=
EXTT10=
EXTT11=
EXTT12=
EXTT13=
EXTT14=
EXTT15=
EXTT16=
EXTT17=
EXTT18=
EXTT19=
EXTT20=
EXTT21=
EXTT22=
PLAYORDER=
